Coordinates
version=1
nRows=7
nColumns=63
inDegrees=yes

Units are S.I. units (second, meters, Newtons, ...)
If the header above contains a line with 'inDegrees', this indicates whether rotational values are in degrees (yes) or radians (no).

endheader
time	pelvis_tilt	pelvis_list	pelvis_rotation	pelvis_tx	pelvis_ty	pelvis_tz	hip_flexion_r	hip_adduction_r	hip_rotation_r	knee_angle_r	knee_angle_r_beta	ankle_angle_r	subtalar_angle_r	mtp_angle_r	hip_flexion_l	hip_adduction_l	hip_rotation_l	knee_angle_l	knee_angle_l_beta	ankle_angle_l	subtalar_angle_l	mtp_angle_l	L5_S1_Flex_Ext	L5_S1_Lat_Bending	L5_S1_axial_rotation	L4_L5_Flex_Ext	L4_L5_Lat_Bending	L4_L5_axial_rotation	L3_L4_Flex_Ext	L3_L4_Lat_Bending	L3_L4_axial_rotation	L2_L3_Flex_Ext	L2_L3_Lat_Bending	L2_L3_axial_rotation	L1_L2_Flex_Ext	L1_L2_Lat_Bending	L1_L2_axial_rotation	L1_T12_Flex_Ext	L1_T12_Lat_Bending	L1_T12_axial_rotation	Abs_r3	Abs_r2	Abs_r1	Abs_t1	Abs_t2	neck_flexion	neck_bending	neck_rotation	arm_flex_r	arm_add_r	arm_rot_r	elbow_flex_r	pro_sup_r	wrist_flex_r	wrist_dev_r	arm_flex_l	arm_add_l	arm_rot_l	elbow_flex_l	pro_sup_l	wrist_flex_l	wrist_dev_l
      5.51851852	      4.56656649	     -4.49910559	     95.87177518	      0.09845735	      0.65292141	      0.85731244	      1.07231876	      4.93162788	      2.95824129	      6.74023177	      0.11763924	     33.92787984	      1.30415884	      0.00000000	      5.06228797	     -2.78777693	      1.05344534	     14.67683354	      0.25615907	     38.13031775	     -2.16733299	      0.00000000	     -0.34113180	      0.04539967	     -2.59287821	     -0.63351586	      0.06038157	     -2.75493310	     -0.56044543	      0.11038477	     -2.75493310	     -0.38987953	      0.11038477	     -2.26876843	     -0.31677499	      0.09257901	     -2.10671354	     -0.19492271	      0.07032409	     -1.94465866	     -2.43667033	      0.51357019	    -14.42081074	      0.00000000	      0.00000000	     20.62286840	      1.43104471	     -3.01844759	     25.03074744	    -17.79737032	     69.80041114	     46.71970109	     89.58202137	    -14.56516396	     11.66104235	     -1.44050612	    -21.24140962	      5.98233828	     54.39048352	     89.28611538	    -22.81879216	      2.61400465
      5.53703704	      4.86024842	     -4.98830491	     97.00423854	      0.09557093	      0.65209032	      0.85956819	      1.74821624	      4.95890392	      0.27299909	      6.79100823	      0.11852545	     34.01927060	      3.35254191	      0.00000000	      5.94870669	     -2.80491468	      2.11279049	     14.88993228	      0.25987834	     37.91768417	     -2.68538547	      0.00000000	     -0.32172879	      0.09717970	     -2.70339463	     -0.59748254	      0.12924901	     -2.87235680	     -0.52856823	      0.23628273	     -2.87235680	     -0.36770384	      0.23628273	     -2.36547030	     -0.29875736	      0.19816885	     -2.19650814	     -0.18383583	      0.15053136	     -2.02754598	     -2.29807659	      1.09931625	    -15.03546993	      0.00000000	      0.00000000	     21.16394048	      1.04931225	     -3.05164570	     23.66609112	    -19.03342369	     63.96793074	     48.55751407	     89.57162988	     -7.48042206	     17.91124720	     -1.17313782	    -21.49922023	      4.60119719	     54.23210514	     89.23376398	    -17.65124361	      7.21501318
      5.55555556	      5.15538644	     -5.56525776	     98.22808539	      0.09280800	      0.65131047	      0.86195441	      2.50972215	      5.00393146	     -1.48018703	      6.86161538	      0.11975778	     33.87794782	      4.17782670	      0.00000000	      6.97409798	     -2.84774821	      2.81473383	     15.12853400	      0.26404273	     37.69373525	     -2.57249287	      0.00000000	     -0.28496644	      0.14332292	     -2.72445611	     -0.52921117	      0.19061948	     -2.89473462	     -0.46817136	      0.34847534	     -2.89473462	     -0.32568814	      0.34847534	     -2.38389910	     -0.26461984	      0.29226409	     -2.21362059	     -0.16282982	      0.22200720	     -2.04334209	     -2.03548678	      1.62129749	    -15.15260757	      0.00000000	      0.00000000	     21.59626097	      0.60179572	     -3.81908491	     21.73120613	    -20.17571301	     57.71888309	     49.65153373	     89.51577263	     -3.09611722	     22.09876150	      0.08705284	    -22.15685753	      5.57128712	     53.07344349	     89.09818302	    -14.52863068	     11.42366529
      5.57407407	      5.29698627	     -6.09498827	     99.30487848	      0.09065498	      0.65076158	      0.86431943	      3.17919640	      4.93385130	     -2.58534073	      6.89283741	      0.12030271	     33.50575390	      4.28315981	      0.00000000	      7.92367666	     -2.77127825	      3.19967390	     15.36556265	      0.26817966	     37.45846145	     -2.14742744	      0.00000000	     -0.25506084	      0.16379643	     -2.69726340	     -0.47367348	      0.21784925	     -2.86584236	     -0.41903945	      0.39825463	     -2.86584236	     -0.29150903	      0.39825463	     -2.36010547	     -0.23684950	      0.33401368	     -2.19152651	     -0.14574176	      0.25372067	     -2.02294755	     -1.82187407	      1.85289795	    -15.00136982	      0.00000000	      0.00000000	     22.05144743	      0.30376572	     -4.87500938	     19.74981763	    -20.97570682	     51.80712849	     50.10510814	     89.41254618	     -0.37136232	     25.30193590	      1.54231080	    -22.89056982	      6.94034555	     51.65078649	     88.96715490	    -11.55913898	     15.74281195
      5.59259259	      5.31125001	     -6.66389400	    100.19309195	      0.08909105	      0.65024747	      0.86652545	      3.92238828	      4.74217417	     -3.30743313	      7.04469954	      0.12295320	     33.15057227	      4.05145879	      0.00000000	      8.86535907	     -2.58584174	      3.32116236	     15.56081998	      0.27158754	     37.19630520	     -1.56212811	      0.00000000	     -0.21123787	      0.16303229	     -2.61838148	     -0.39228984	      0.21683294	     -2.78203032	     -0.34704269	      0.39639671	     -2.78203032	     -0.24142376	      0.39639671	     -2.29108379	     -0.19615548	      0.33245544	     -2.12743495	     -0.12070132	      0.25253702	     -1.96378611	     -1.50885096	      1.84425386	    -14.56265226	      0.00000000	      0.00000000	     22.42275103	     -0.13147765	     -6.27341420	     17.45831034	    -21.53498081	     45.94592593	     50.18439552	     89.27278526	      1.06408928	     27.64577375	      3.19488828	    -23.71116974	      9.09163796	     49.86423379	     88.91883815	     -9.11603820	     19.47979115
      5.61111111	      5.27022138	     -7.08665704	    101.10207190	      0.08753329	      0.64996606	      0.86875387	      4.46137564	      4.51352909	     -3.87336919	      7.11513488	      0.12418253	     32.83096413	      3.68808132	      0.00000000	      9.65714008	     -2.35821411	      3.49969242	     15.72835307	      0.27451155	     36.93253918	     -0.81898631	      0.00000000	     -0.18527286	      0.15625755	     -2.59090821	     -0.34407023	      0.20782254	     -2.75283997	     -0.30438478	      0.37992461	     -2.75283997	     -0.21174835	      0.37992461	     -2.26704468	     -0.17204438	      0.31864040	     -2.10511292	     -0.10586491	      0.24204294	     -1.94318116	     -1.32338552	      1.76761666	    -14.40985419	      0.00000000	      0.00000000	     22.76924374	     -0.49213986	     -7.54226542	     15.44458128	    -21.95457095	     41.61130017	     49.74631181	     89.07589948	      0.54752419	     28.33561706	      4.75935014	    -24.57333282	     11.64655691	     48.06677027	     88.91900843	     -7.23725249	     22.65389601
      5.62962963	      5.20737857	     -7.43779149	    102.03322630	      0.08602027	      0.64963460	      0.87085758	      4.97475056	      4.26729880	     -4.54781122	      7.31951681	      0.12774967	     32.76775347	      3.29003328	      0.00000000	     10.41623239	     -2.08919981	      3.84488647	     15.96036003	      0.27856083	     36.81853973	     -0.16308157	      0.00000000	     -0.15365417	      0.15123821	     -2.68231685	     -0.28535115	      0.20114682	     -2.84996165	     -0.25243843	      0.36772058	     -2.84996165	     -0.17561135	      0.36772058	     -2.34702724	     -0.14268326	      0.30840496	     -2.17938244	     -0.08779799	      0.23426799	     -2.01173764	     -1.09753635	      1.71083688	    -14.91824162	      0.00000000	      0.00000000	     22.95814233	     -0.86533142	     -7.80355903	     14.19456701	    -22.25969970	     39.69822279	     48.58011258	     88.86069220	     -0.78574568	     27.34228598	      5.64140888	    -25.42487833	     13.92660742	     46.60097500	     88.96928491	     -6.18278175	     24.23522046
